<?xml version="1.0" encoding="UTF-8"?>
<!DOCTYPE svg PUBLIC "-//W3C//DTD SVG 1.1//EN" "http://www.w3.org/Graphics/SVG/1.1/DTD/svg11.dtd">
<!-- Creator: CorelDRAW -->
<svg xmlns="http://www.w3.org/2000/svg" xml:space="preserve" width="2048px" height="2048px" style="shape-rendering:geometricPrecision; text-rendering:geometricPrecision; image-rendering:optimizeQuality; fill-rule:evenodd; clip-rule:evenodd"
viewBox="0 0 2048 2048"
 xmlns:xlink="http://www.w3.org/1999/xlink">
 <defs>
  <style type="text/css">
   <![CDATA[
    .fil0 {fill:#8BC34A}
    .fil1 {fill:white}
    .fil2 {fill:white;fill-rule:nonzero}
   ]]>
  </style>
 </defs>
 <g id="Layer_x0020_1">
  <metadata id="CorelCorpID_0Corel-Layer"/>
  <rect class="fil0" width="2048" height="2048" rx="256.001" ry="256.001"/>
  <g id="_344596744">
   <path id="_344598664" class="fil1" d="M294.774 1231.32l0 0zm442.852 -500.115l573.976 0 0.125197 0.125197c62.6705,0.432284 121.929,23.8429 171.621,60.4382 53.6044,39.476 96.5233,94.6796 120.619,152.894 5.19449,12.5634 9.2752,23.7579 13.1575,34.4126 11.8571,32.5347 21.6071,59.2843 50.7591,83.0753 26.2772,21.4512 47.6611,47.2028 62.6587,76.4115 14.5004,28.2437 22.9122,59.5418 23.8866,93.1324l0 0.499607c0.011811,0.829134 5.29961,266.025 -77.0717,331.46l0 113.193c0,23.3103 -9.48308,44.465 -24.8221,59.8087 -15.4075,15.4122 -36.5941,24.9484 -59.9186,24.9484l-116.934 0c-23.4059,0 -44.5926,-9.49016 -59.928,-24.8256 -15.3402,-15.3425 -24.828,-36.5339 -24.828,-59.9315l0 -98.1993 -732.595 0 0 98.1993c0,23.3173 -9.54213,44.5134 -24.965,59.9268 -15.3484,15.339 -36.5055,24.8303 -59.8241,24.8303l-116.933 0c-23.3138,0 -44.5052,-9.53859 -59.915,-24.9543 -15.3366,-15.3414 -24.8256,-36.4914 -24.8256,-59.8028l0 -111.095c-18.4228,-11.2075 -33.0485,-28.8555 -44.1437,-51.5422 -14.2984,-29.2382 -22.7681,-67.3123 -25.9465,-110.34 -1.42441,-19.2874 -2.87008,-37.8614 -4.05945,-53.1461 -4.67481,-60.0934 -5.17678,-66.5493 -2.93504,-119.405 1.02638,-33.4512 9.43111,-64.6229 23.8819,-92.7591 15.0036,-29.211 36.3922,-54.9615 62.6764,-76.4103 29.1236,-23.7685 38.8689,-50.4898 50.7178,-82.9808 3.89646,-10.6878 7.99371,-21.9189 13.2059,-34.5071 24.091,-58.2142 67.0099,-113.417 120.612,-152.891 49.6949,-36.5977 108.954,-60.0083 171.621,-60.4406l0.125197 -0.125197zm94.4068 611.189l384 0 0 64.0016 -384 0 0 -64.0016zm-366.754 79.102c-5.62796,-2.36457 -10.9287,-5.88189 -15.6,-10.4079 -13.7847,-13.4421 -23.3232,-30.5681 -28.2957,-48.7583 -5.03859,-18.4299 -5.38347,-38.1945 -0.690945,-56.4626 5.25237,-20.4036 16.2354,-38.8973 31.063,-53.5914 14.6705,-14.5382 33.2988,-25.5933 54.0166,-31.2969l0.125197 -0.125197c4.35709,-1.1752 9.06142,-1.73032 13.9606,-1.64882 4.91575,0.0826772 9.68387,0.810237 14.1354,2.19921l-0.0165354 0.0519685 170.849 46.6961 1.00039 0.250394c9.75473,3.02126 18.1122,8.81694 24.2374,16.3772 6.15,7.58505 10.102,16.9748 11.0291,27.1547l0 0.125197c0.981497,10.8933 2.42717,19.7906 3.9437,29.1307l0.046063 0.283465c0.917717,5.58308 1.79173,10.9051 2.08465,12.8929 0.635434,4.31103 1.29331,9.2504 1.98307,15.3378 0.197244,1.78228 0.276378,3.87874 0.240945,6.26339 -0.196063,12.965 -5.17205,24.6319 -13.2177,33.3473 -8.0504,8.71772 -19.1563,14.5961 -31.6134,15.9886 -1.74449,0.19252 -3.83859,0.274016 -6.28229,0.239764l-213.933 -0.238583 -0.750001 0c-6.5504,-0.155906 -12.7524,-1.47165 -18.3154,-3.80906zm1055.16 -394.481c1.5815,8.2689 3.10158,16.2106 3.88111,18.3484l-0.0283465 0.0106299c1.82126,4.85906 1.30394,3.45 1.4374,3.81614 1.39252,3.80788 -1.17874,-3.05315 1.06654,2.99528l16.0122 43.1256 -45.887 0 -944.612 0 -46.0571 0 16.1823 -43.1256c0.783071,-2.08937 0.250394,-0.746457 1.22599,-3.42284 0.285827,-0.787796 -0.376772,1.04528 1.27795,-3.38859l-0.0283465 -0.0106299c0.78189,-2.15079 2.30906,-10.1197 3.89646,-18.4122 2.40945,-12.5858 4.93111,-25.7481 8.55827,-34.4941l0.0448819 0.0188977c10.4929,-25.3205 47.3989,-85.3028 102.865,-127.325 36.3366,-27.5292 80.9883,-48.0839 132.534,-48.4382l0.125197 -0.125197 503.365 0 0.125197 0.125197c51.5469,0.354331 96.1985,20.9114 132.535,48.4406 55.4646,42.0225 92.367,102.005 102.855,127.323l0.0448819 -0.0188977c3.63898,8.72835 6.16772,21.9414 8.58072,34.5579zm-190.061 394.533c-6.55985,-2.80158 -12.5126,-6.96142 -17.4425,-12.3614l0.068504 -0.0625985c-4.95,-5.42245 -8.58072,-11.674 -10.7539,-18.2917 -2.18622,-6.65552 -2.96457,-13.8118 -2.19567,-21.0036l0 -0.124016c1.10079,-9.73111 2.5252,-18.5162 3.88701,-26.9351l0.188977 -1.17047 0 -0.125197c0.724016,-4.4126 1.42913,-8.74253 2.15788,-13.9465 0.73819,-5.26772 1.37835,-10.4398 1.84725,-15.5776 0.923623,-10.1776 4.86851,-19.5744 11.0268,-27.176 6.1252,-7.56497 14.4744,-13.3583 24.241,-16.3713l1.00039 -0.250394 170.848 -46.6961 -0.0165354 -0.0519685c4.44922,-1.38898 9.2067,-2.11536 14.1272,-2.19921 4.8815,-0.0814961 9.58347,0.473622 13.9701,1.64882l0.250394 0.125197c20.5961,5.67402 39.189,16.7351 53.8937,31.3099 14.824,14.6953 25.8095,33.1878 31.0595,53.5949 4.6937,18.2599 4.34764,38.0221 -0.692127,56.4496 -4.97244,18.1854 -14.5122,35.3138 -28.2945,48.7548 -4.67126,4.52599 -9.97205,8.04331 -15.6,10.4079 -5.563,2.3374 -11.7614,3.65315 -18.3154,3.80906l-0.750001 0 -213.933 0.238583c-7.16693,0.106299 -14.1638,-1.26024 -20.5725,-3.99567z"/>
   <path id="_344603176" class="fil2" d="M955.419 606.398l0.00236221 -0.00236221c0,0.00590552 0,0.00590552 -0.00236221,0.00236221z"/>
   <polygon id="_344600008" class="fil2" points="955.418,606.39 955.416,606.391 955.412,606.384 "/>
   <polygon id="_344603224" class="fil2" points="955.417,606.395 955.422,606.395 955.422,606.394 955.416,606.393 "/>
   <path id="_344597728" class="fil2" d="M955.424 606.396c0,0.00590552 0,0.00590552 0.00236221,0.00236221l-0.00236221 -0.00236221z"/>
   <polygon id="_344598472" class="fil2" points="955.422,606.395 955.417,606.395 955.419,606.398 955.422,606.396 "/>
   <polygon id="_344600152" class="fil2" points="955.424,606.39 955.424,606.394 955.429,606.393 955.431,606.387 955.426,606.391 "/>
   <polygon id="_344597920" class="fil2" points="955.424,606.388 955.424,606.39 955.422,606.389 955.418,606.39 955.412,606.384 955.422,606.389 955.422,606.394 955.423,606.394 955.424,606.394 955.424,606.395 955.424,606.396 955.426,606.398 955.428,606.395 955.424,606.395 955.428,606.395 955.429,606.393 955.426,606.391 955.431,606.387 955.432,606.384 "/>
   <path id="_344596072" class="fil2" d="M955.426 350.391l-0.00236221 0.00236221c0,-0.00590552 0,-0.00708662 0.00236221,-0.00236221z"/>
   <polygon id="_344599240" class="fil2" points="955.426,350.398 955.429,350.397 955.432,350.404 "/>
   <polygon id="_344602456" class="fil2" points="955.429,350.394 955.424,350.394 955.424,350.396 955.429,350.397 "/>
   <path id="_344597128" class="fil2" d="M955.422 350.393c0,-0.00708662 -0.0011811,-0.00708662 -0.00354331,-0.00354331l0.00354331 0.00354331z"/>
   <polygon id="_344600752" class="fil2" points="955.422,350.394 955.422,350.393 955.418,350.39 955.417,350.394 "/>
   <polygon id="_344596408" class="fil2" points="955.424,350.394 955.429,350.394 955.426,350.391 955.424,350.393 "/>
   <polygon id="_344596840" class="fil2" points="955.422,350.399 955.422,350.396 955.416,350.397 955.412,350.404 955.415,350.403 955.419,350.398 955.416,350.397 955.417,350.394 955.422,350.394 955.422,350.396 955.423,350.396 955.424,350.396 955.424,350.399 955.426,350.398 955.432,350.404 955.424,350.4 955.424,350.399 "/>
   <polygon id="_344600488" class="fil2" points="955.422,350.4 955.422,350.399 955.419,350.398 955.415,350.403 "/>
   <path id="_344600224" class="fil2" d="M1010.82 318.394l40.6028 0c44.0327,0 84.0414,17.9917 113.026,46.9748 28.9831,28.9843 46.9748,68.993 46.9748,113.026l0 0.0011811c0,44.0327 -17.9917,84.0414 -46.9748,113.026 -28.9843,28.9831 -68.993,46.9748 -113.026,46.9748l-40.604 0c-2.81103,4.84489 -6.23741,9.29056 -10.1705,13.2248 -11.5854,11.5831 -27.5941,18.7748 -45.2256,18.7748 -17.6327,0 -33.6402,-7.19174 -45.2256,-18.7748 -3.93307,-3.93425 -7.35945,-8.37993 -10.1705,-13.2248l-8.60434 0 -32.0008 0 0 -32.0008 0 -256.001 0 -32.0008 32.0008 0 8.60316 0c2.81103,-4.84489 6.23741,-9.29056 10.1717,-13.2248 11.5854,-11.5831 27.5929,-18.7748 45.2256,-18.7748 17.6315,0 33.6402,7.19174 45.2256,18.7748 3.93425,3.93425 7.36064,8.37993 10.1717,13.2248z"/>
   <path id="_344601352" class="fil2" d="M1051.42 382.395l-64.0004 0 -31.9984 0 -0.00236221 0 -31.9984 0 0 191.999 31.9984 0 0.00236221 0 31.9984 0 64.0004 0c26.3669,0 50.3611,-10.8095 67.7752,-28.2236 17.4142,-17.4142 28.2236,-41.4083 28.2236,-67.7752l0 -0.0011811c0,-26.3669 -10.8095,-50.3611 -28.2236,-67.7752 -17.4142,-17.4142 -41.4083,-28.2236 -67.7752,-28.2236z"/>
   <polygon id="_344602864" class="fil2" points="763.385,382.394 891.422,382.394 891.422,446.396 763.385,446.396 "/>
   <polygon id="_344600656" class="fil2" points="763.385,511.225 891.422,511.225 891.422,575.227 763.385,575.227 "/>
   <path id="_344601280" class="fil2" d="M1192.76 446.394l366.626 0c36.3331,0 69.3414,14.8417 93.2493,38.7508 23.9091,23.9091 38.7508,56.9185 38.7508,93.2493l0 508.75 -64.0016 0 0 -508.75c0,-18.6662 -7.66064,-35.6599 -19.9996,-47.9989 -12.339,-12.339 -29.3327,-19.9996 -47.9989,-19.9996l-366.626 0 0 -64.0016z"/>
  </g>
 </g>
</svg>
