<?xml version="1.0" encoding="UTF-8"?>
<!DOCTYPE svg PUBLIC "-//W3C//DTD SVG 1.1//EN" "http://www.w3.org/Graphics/SVG/1.1/DTD/svg11.dtd">
<!-- Creator: CorelDRAW -->
<svg xmlns="http://www.w3.org/2000/svg" xml:space="preserve" width="6.82666in" height="6.82666in" style="shape-rendering:geometricPrecision; text-rendering:geometricPrecision; image-rendering:optimizeQuality; fill-rule:evenodd; clip-rule:evenodd"
viewBox="0 0 6.82666 6.82666"
 xmlns:xlink="http://www.w3.org/1999/xlink">
 <defs>
  <style type="text/css">
   <![CDATA[
    .fil2 {fill:none}
    .fil7 {fill:#1A1A1A}
    .fil19 {fill:#263238}
    .fil22 {fill:#295417}
    .fil4 {fill:#2C2C2C}
    .fil6 {fill:#333333}
    .fil12 {fill:#33691E}
    .fil20 {fill:#37474F}
    .fil8 {fill:#424242}
    .fil1 {fill:#5C6BC0}
    .fil18 {fill:#689F38}
    .fil0 {fill:#7986CB}
    .fil9 {fill:#7CB342}
    .fil13 {fill:#8BC34A}
    .fil17 {fill:#9FBED6}
    .fil14 {fill:#B3E5FC}
    .fil15 {fill:#BBDEFB}
    .fil21 {fill:#BF360C}
    .fil5 {fill:#FFFFFE}
    .fil10 {fill:#212121;fill-rule:nonzero}
    .fil16 {fill:#263238;fill-rule:nonzero}
    .fil3 {fill:#333333;fill-rule:nonzero}
    .fil11 {fill:#558B2F;fill-rule:nonzero}
   ]]>
  </style>
   <clipPath id="id0">
    <path d="M3.41333 -3.93701e-006c1.88513,0 3.41333,1.5282 3.41333,3.41333 0,1.88513 -1.5282,3.41333 -3.41333,3.41333 -1.88513,0 -3.41333,-1.5282 -3.41333,-3.41333 0,-1.88513 1.5282,-3.41333 3.41333,-3.41333z"/>
   </clipPath>
 </defs>
 <g id="Layer_x0020_1">
  <metadata id="CorelCorpID_0Corel-Layer"/>
  <path class="fil0" d="M3.41333 -3.93701e-006c1.88513,0 3.41333,1.5282 3.41333,3.41333 0,1.88513 -1.5282,3.41333 -3.41333,3.41333 -1.88513,0 -3.41333,-1.5282 -3.41333,-3.41333 0,-1.88513 1.5282,-3.41333 3.41333,-3.41333z"/>
  <g style="clip-path:url(#id0)">
   <g id="_457197344">
    <g>
     <polygon id="_4432985441" class="fil1" points="5.1439,2.46339 8.93017,6.24966 8.92529,6.24439 8.92022,6.23939 8.91493,6.23464 8.90944,6.23014 8.90374,6.22589 5.11747,2.43962 5.12317,2.44387 5.12867,2.44837 5.13395,2.45311 5.13902,2.45812 "/>
     <polygon id="_443298760" class="fil1" points="3.84535,2.58306 7.63161,6.36933 7.31589,6.36933 7.31118,6.36909 7.30659,6.36838 7.30216,6.36724 7.29791,6.36567 7.29387,6.36372 7.29005,6.36139 7.28648,6.35872 7.28319,6.35572 3.49692,2.56945 3.50021,2.57245 3.50378,2.57512 3.5076,2.57744 3.51165,2.5794 3.51589,2.58096 3.52032,2.58211 3.52491,2.58281 3.52963,2.58306 "/>
     <polygon id="_443298928" class="fil1" points="3.84535,2.21261 7.63161,5.99889 7.31589,5.99889 7.31118,5.99865 7.30659,5.99794 7.30216,5.9968 7.29791,5.99523 7.29387,5.99328 7.29005,5.99095 7.28648,5.98828 7.28319,5.98528 3.49692,2.19901 3.50021,2.20201 3.50378,2.20468 3.5076,2.207 3.51165,2.20896 3.51589,2.21052 3.52032,2.21167 3.52491,2.21237 3.52963,2.21261 "/>
     <polygon id="_443299312" class="fil1" points="4.54731,2.51622 8.33358,6.30249 8.32769,6.31377 8.32142,6.32482 8.31479,6.33563 8.3078,6.3462 8.30047,6.35651 8.2928,6.36656 8.2848,6.37634 8.27647,6.38584 8.26784,6.39505 8.2589,6.40396 8.24967,6.41257 8.24014,6.42087 8.23034,6.42884 8.22027,6.43648 8.20994,6.44379 8.19935,6.45074 8.18852,6.45735 8.17745,6.46358 8.16615,6.46944 8.15464,6.47493 8.14291,6.48002 8.13098,6.48472 8.11885,6.489 8.10655,6.49287 8.09406,6.49632 8.08141,6.49934 8.06859,6.50191 8.05562,6.50404 8.04251,6.50571 8.02927,6.50691 8.0159,6.50764 8.00241,6.50788 7.66465,6.50788 7.65802,6.50721 7.65182,6.50528 7.64621,6.50222 7.64132,6.49818 3.85505,2.71191 3.85994,2.71595 3.86556,2.719 3.87175,2.72094 3.87839,2.72161 4.21614,2.72161 4.22963,2.72137 4.243,2.72064 4.25624,2.71944 4.26935,2.71777 4.28232,2.71564 4.29514,2.71307 4.30779,2.71005 4.32028,2.7066 4.33259,2.70273 4.34471,2.69844 4.35664,2.69375 4.36837,2.68866 4.37989,2.68317 4.39118,2.67731 4.40225,2.67107 4.41308,2.66447 4.42367,2.65752 4.434,2.65021 4.44407,2.64257 4.45387,2.63459 4.4634,2.6263 4.47263,2.61769 4.48157,2.60878 4.4902,2.59957 4.49853,2.59007 4.50653,2.58029 4.5142,2.57024 4.52153,2.55993 4.52852,2.54936 4.53515,2.53855 4.54142,2.5275 "/>
     <polygon id="_443299336" class="fil1" points="5.10522,3.77548 8.89149,7.56176 8.88993,7.56179 8.88704,7.56184 8.88296,7.56191 8.87789,7.56198 8.87196,7.56207 8.86535,7.56215 8.85821,7.56225 8.85071,7.56235 5.06444,3.77607 5.07194,3.77598 5.07908,3.77588 5.08569,3.7758 5.09162,3.77571 5.0967,3.77563 5.10077,3.77557 5.10366,3.77552 "/>
     <polygon id="_443299528" class="fil1" points="5.06444,3.77607 8.85071,7.56235 8.83365,7.56258 5.04738,3.77631 "/>
     <polygon id="_443299048" class="fil1" points="5.04738,3.77631 8.83365,7.56258 8.8338,7.56664 8.83394,7.57074 8.83408,7.57489 8.83422,7.57908 8.83436,7.58331 8.83449,7.58758 8.83463,7.59189 8.83476,7.59624 8.83489,7.60063 8.83502,7.60506 8.83515,7.60952 8.83528,7.61402 8.8354,7.61856 8.83552,7.62312 8.83564,7.62772 8.83576,7.63236 5.04949,3.84609 5.04937,3.84145 5.04925,3.83685 5.04913,3.83228 5.04901,3.82775 5.04888,3.82325 5.04875,3.81879 5.04862,3.81436 5.04849,3.80997 5.04836,3.80562 5.04822,3.80131 5.04809,3.79704 5.04795,3.79281 5.04781,3.78862 5.04767,3.78447 5.04753,3.78037 "/>
     <polygon id="_443298976" class="fil1" points="5.04949,3.84609 8.83576,7.63236 8.83618,7.64118 8.83667,7.64776 8.83685,7.65244 8.83631,7.65554 8.83469,7.65739 8.83157,7.65829 8.82658,7.65859 8.81932,7.6586 5.03305,3.87233 5.04031,3.87232 5.0453,3.87202 5.04842,3.87111 5.05005,3.86927 5.05058,3.86617 5.05041,3.86149 5.04991,3.85491 "/>
     <polygon id="_443299096" class="fil1" points="5.03305,3.87233 8.81932,7.6586 8.81932,7.71331 5.03305,3.92704 "/>
     <polygon id="_443299192" class="fil1" points="5.05034,3.92996 8.83661,7.71624 8.83831,7.7192 8.83882,7.72363 8.83863,7.72983 8.83822,7.73809 8.8381,7.74869 5.05183,3.96242 5.05195,3.95182 5.05236,3.94356 5.05256,3.93736 5.05205,3.93293 "/>
     <polygon id="_443299984" class="fil1" points="5.05183,3.96242 8.8381,7.74869 8.83824,7.75766 8.83837,7.76667 8.8385,7.77571 8.83863,7.78477 8.83876,7.79385 8.83887,7.80294 8.83899,7.81206 8.8391,7.82117 8.83921,7.83029 8.83931,7.83941 8.83941,7.84852 8.83951,7.85762 8.8396,7.86671 8.83969,7.87578 8.83978,7.88483 8.83986,7.89385 8.83994,7.90284 8.84002,7.9118 8.84009,7.92071 8.84015,7.92958 8.84022,7.93841 8.84028,7.94717 8.84034,7.95589 8.8404,7.96454 8.84045,7.97313 8.8405,7.98165 8.84055,7.99009 8.8406,7.99846 8.84064,8.00674 8.84068,8.01494 8.84072,8.02305 8.84075,8.03106 5.05448,4.24479 5.05445,4.23678 5.05441,4.22867 5.05437,4.22047 5.05433,4.21219 5.05428,4.20382 5.05424,4.19538 5.05419,4.18686 5.05413,4.17827 5.05407,4.16962 5.05402,4.1609 5.05395,4.15213 5.05389,4.14331 5.05382,4.13444 5.05375,4.12552 5.05367,4.11657 5.05359,4.10758 5.05351,4.09856 5.05343,4.08951 5.05333,4.08044 5.05324,4.07135 5.05315,4.06225 5.05304,4.05313 5.05294,4.04402 5.05283,4.0349 5.05272,4.02578 5.05261,4.01667 5.05249,4.00758 5.05237,3.9985 5.05224,3.98944 5.05211,3.9804 5.05197,3.97139 "/>
     <polygon id="_443299672" class="fil1" points="4.92575,4.43846 8.71202,8.22473 8.71081,8.2248 8.70961,8.22487 8.70841,8.22493 8.7072,8.22497 8.70599,8.22501 8.70478,8.22504 8.70357,8.22505 8.70236,8.22506 4.91609,4.43878 4.9173,4.43878 4.91851,4.43876 4.91972,4.43874 4.92093,4.4387 4.92214,4.43865 4.92334,4.4386 4.92455,4.43853 "/>
     <polygon id="_443300272" class="fil1" points="4.73788,4.35487 8.52415,8.14114 8.47754,8.14114 4.69128,4.35487 "/>
     <polygon id="_443300104" class="fil1" points="4.69128,4.35487 8.47754,8.14114 8.47857,8.1462 8.47953,8.15129 8.48043,8.1564 8.48126,8.16154 8.48203,8.16669 8.48273,8.17186 8.48337,8.17706 8.48394,8.18227 8.48445,8.1875 8.48489,8.19276 8.48527,8.19803 8.48557,8.20332 8.48581,8.20863 8.48599,8.21396 8.48609,8.2193 8.48613,8.22466 4.69986,4.43839 4.69982,4.43303 4.69972,4.42769 4.69955,4.42236 4.69931,4.41705 4.699,4.41176 4.69863,4.40649 4.69819,4.40123 4.69768,4.396 4.6971,4.39078 4.69646,4.38559 4.69576,4.38042 4.69499,4.37526 4.69416,4.37013 4.69326,4.36502 4.6923,4.35993 "/>
     <polygon id="_443299720" class="fil1" points="4.91609,4.43878 8.70236,8.22506 8.53191,8.22506 4.74564,4.43878 "/>
     <polygon id="_443300224" class="fil1" points="5.11648,4.27813 8.90274,8.0644 8.90724,8.07001 8.91113,8.07592 8.91439,8.08209 8.91698,8.0885 8.91887,8.09512 8.92004,8.10193 8.92043,8.1089 8.92043,8.22209 8.91987,8.22628 8.91828,8.2302 8.91577,8.23375 8.91244,8.23685 8.90842,8.2394 8.9038,8.24133 8.89871,8.24256 8.89325,8.24298 8.71202,8.24298 4.92575,4.45671 5.10698,4.45671 5.11244,4.45629 5.11754,4.45506 5.12215,4.45313 5.12618,4.45057 5.1295,4.44748 5.13202,4.44393 5.13361,4.44001 5.13416,4.43581 5.13416,4.32263 5.13377,4.31566 5.13261,4.30885 5.13071,4.30223 5.12812,4.29582 5.12486,4.28965 5.12097,4.28374 "/>
     <polygon id="_443299552" class="fil1" points="4.69986,4.43839 8.48613,8.22466 8.48599,8.23516 8.4856,8.24559 8.48494,8.25596 8.48402,8.26625 8.48286,8.27647 8.48144,8.28661 8.47977,8.29667 8.47786,8.30664 8.47571,8.31653 8.47331,8.32632 8.47069,8.33603 8.46783,8.34563 8.46475,8.35513 8.46144,8.36453 8.45791,8.37382 8.45415,8.38301 8.45019,8.39207 8.446,8.40103 8.44161,8.40986 8.43702,8.41857 8.43222,8.42715 8.42722,8.43561 8.42203,8.44393 8.41664,8.45211 8.41106,8.46016 8.4053,8.46806 8.39935,8.47582 8.39322,8.48343 8.38691,8.49089 8.38043,8.49819 8.37378,8.50534 8.36696,8.51232 4.5807,4.72605 4.58752,4.71907 4.59417,4.71192 4.60065,4.70462 4.60695,4.69716 4.61308,4.68955 4.61903,4.68179 4.6248,4.67389 4.63037,4.66584 4.63576,4.65765 4.64096,4.64933 4.64595,4.64088 4.65075,4.6323 4.65535,4.62359 4.65974,4.61476 4.66392,4.6058 4.66789,4.59674 4.67164,4.58755 4.67517,4.57826 4.67848,4.56886 4.68157,4.55936 4.68442,4.54976 4.68705,4.54005 4.68944,4.53026 4.69159,4.52037 4.6935,4.5104 4.69517,4.50034 4.69659,4.4902 4.69776,4.47998 4.69867,4.46969 4.69933,4.45932 4.69972,4.44889 "/>
     <polygon id="_443299576" class="fil1" points="3.89478,4.35487 7.68105,8.14114 7.63663,8.14114 3.85036,4.35487 "/>
     <polygon id="_443299960" class="fil1" points="3.85036,4.35487 7.63663,8.14114 7.6357,8.14622 7.63484,8.15132 7.63403,8.15644 7.63328,8.16159 7.63258,8.16674 7.63194,8.17192 7.63137,8.17712 7.63085,8.18233 7.63039,8.18756 7.63,8.1928 7.62966,8.19807 7.62938,8.20334 7.62917,8.20864 7.62901,8.21394 7.62892,8.21927 7.62889,8.22461 3.84262,4.43833 3.84265,4.433 3.84274,4.42767 3.8429,4.42237 3.84311,4.41707 3.84339,4.4118 3.84373,4.40653 3.84413,4.40129 3.84458,4.39606 3.8451,4.39085 3.84568,4.38565 3.84631,4.38047 3.84701,4.37531 3.84776,4.37017 3.84857,4.36505 3.84944,4.35995 "/>
     <polygon id="_443300152" class="fil1" points="2.92948,3.09516 6.71575,6.88143 6.71251,6.87979 6.70758,6.87922 6.70578,6.87922 2.91951,3.09295 2.92131,3.09295 2.92624,3.09352 "/>
     <polygon id="_443299792" class="fil1" points="3.84262,4.43833 7.62889,8.22461 7.62889,8.22506 3.84262,4.43878 "/>
     <polygon id="_443301064" class="fil1" points="3.84262,4.43878 7.62889,8.22506 7.62483,8.22506 3.83857,4.43878 "/>
     <polygon id="_443300584" class="fil1" points="2.8024,4.35487 6.58867,8.14114 6.54503,8.14114 2.75876,4.35487 "/>
     <polygon id="_443300320" class="fil1" points="2.75876,4.35487 6.54503,8.14114 6.54606,8.1462 6.54702,8.15129 6.54791,8.1564 6.54874,8.16154 6.54952,8.16669 6.55022,8.17186 6.55086,8.17706 6.55143,8.18227 6.55194,8.1875 6.55238,8.19276 6.55276,8.19803 6.55306,8.20332 6.5533,8.20863 6.55348,8.21396 6.55358,8.2193 6.55361,8.22466 2.76735,4.43839 2.76731,4.43303 2.76721,4.42769 2.76704,4.42236 2.7668,4.41705 2.76649,4.41176 2.76611,4.40649 2.76567,4.40123 2.76517,4.396 2.76459,4.39078 2.76395,4.38559 2.76325,4.38042 2.76248,4.37526 2.76165,4.37013 2.76075,4.36502 2.75979,4.35993 "/>
     <polygon id="_443300872" class="fil1" points="2.32891,3.38006 6.11518,7.16633 6.11887,7.17048 6.12187,7.17563 6.12424,7.1817 6.12605,7.18861 6.12737,7.19629 6.12828,7.20465 6.12884,7.21362 6.12912,7.2231 6.12919,7.23303 6.12913,7.24331 6.12899,7.25388 6.12886,7.26465 6.1288,7.27554 6.12881,7.28048 6.12885,7.28532 6.12891,7.29005 6.12897,7.29468 6.12904,7.2992 6.12909,7.3036 6.12915,7.30789 6.12918,7.31207 6.12919,7.31612 6.12917,7.32006 6.12911,7.32387 6.12901,7.32755 6.12886,7.3311 6.12865,7.33452 6.12838,7.33781 6.12804,7.34096 2.34177,3.55469 2.34211,3.55154 2.34239,3.54825 2.34259,3.54483 2.34274,3.54128 2.34285,3.53759 2.3429,3.53378 2.34293,3.52985 2.34291,3.5258 2.34288,3.52162 2.34283,3.51733 2.34277,3.51293 2.3427,3.50841 2.34264,3.50378 2.34259,3.49905 2.34255,3.4942 2.34254,3.48926 2.34259,3.47838 2.34272,3.46761 2.34286,3.45704 2.34293,3.44676 2.34285,3.43683 2.34257,3.42735 2.34201,3.41838 2.34111,3.41002 2.33978,3.40234 2.33797,3.39543 2.3356,3.38935 2.33261,3.3842 "/>
     <polygon id="_443300968" class="fil1" points="3.83857,4.43878 7.62483,8.22506 7.62408,8.22871 7.62271,8.2321 7.6208,8.23515 7.61841,8.23779 7.6156,8.23996 7.61244,8.2416 7.60899,8.24263 7.60532,8.24298 6.61546,8.24298 6.61152,8.24257 6.60783,8.24138 6.6045,8.2395 6.60159,8.23702 2.81532,4.45075 2.81823,4.45323 2.82157,4.45511 2.82525,4.4563 2.82919,4.45671 3.81905,4.45671 3.82272,4.45635 3.82617,4.45533 3.82933,4.45369 3.83214,4.45152 3.83454,4.44887 3.83644,4.44583 3.83781,4.44244 "/>
     <polygon id="_443300752" class="fil1" points="2.76735,4.43839 6.55361,8.22466 6.55348,8.23516 6.55309,8.24559 6.55243,8.25596 6.55151,8.26625 6.55035,8.27647 6.54893,8.28661 6.54726,8.29667 6.54535,8.30664 6.5432,8.31653 6.54081,8.32632 6.53818,8.33603 6.53532,8.34563 6.53224,8.35513 6.52893,8.36453 6.52539,8.37382 6.52164,8.38301 6.51767,8.39207 6.5135,8.40103 6.50911,8.40986 6.50451,8.41857 6.49971,8.42715 6.49471,8.43561 6.48952,8.44393 6.48413,8.45211 6.47855,8.46016 6.47279,8.46806 6.46684,8.47582 6.46071,8.48343 6.45441,8.49089 6.44793,8.49819 6.44127,8.50534 6.43445,8.51232 2.64819,4.72605 2.655,4.71907 2.66166,4.71192 2.66814,4.70462 2.67444,4.69716 2.68057,4.68955 2.68652,4.68179 2.69228,4.67389 2.69786,4.66584 2.70325,4.65765 2.70844,4.64933 2.71344,4.64088 2.71824,4.6323 2.72284,4.62359 2.72723,4.61476 2.73141,4.6058 2.73537,4.59674 2.73913,4.58755 2.74266,4.57826 2.74597,4.56886 2.74906,4.55936 2.75191,4.54976 2.75454,4.54005 2.75693,4.53026 2.75908,4.52037 2.76099,4.5104 2.76266,4.50034 2.76408,4.4902 2.76524,4.47998 2.76616,4.46969 2.76682,4.45932 2.76721,4.44889 "/>
     <polygon id="_443300440" class="fil1" points="1.96227,4.35487 5.74854,8.14114 5.70493,8.14114 1.91867,4.35487 "/>
     <polygon id="_443301040" class="fil1" points="1.91867,4.35487 5.70493,8.14114 5.70402,8.14622 5.70315,8.15132 5.70235,8.15644 5.70161,8.16159 5.70092,8.16674 5.70029,8.17192 5.69971,8.17712 5.6992,8.18233 5.69875,8.18756 5.69835,8.1928 5.69802,8.19807 5.69774,8.20334 5.69753,8.20864 5.69737,8.21394 5.69728,8.21927 5.69725,8.22461 1.91098,4.43833 1.91102,4.433 1.91111,4.42767 1.91126,4.42237 1.91148,4.41707 1.91175,4.4118 1.91209,4.40653 1.91248,4.40129 1.91293,4.39606 1.91344,4.39085 1.91402,4.38565 1.91465,4.38047 1.91534,4.37531 1.91608,4.37017 1.91689,4.36505 1.91775,4.35995 "/>
     <polygon id="_443300416" class="fil1" points="1.70309,3.87233 5.48936,7.6586 5.48909,7.6586 1.70282,3.87233 "/>
     <polygon id="_443300560" class="fil1" points="1.91098,4.43833 5.69725,8.22461 5.69725,8.22506 1.91098,4.43878 "/>
     <polygon id="_443300728" class="fil1" points="1.91098,4.43878 5.69725,8.22506 5.54135,8.22506 1.75508,4.43878 "/>
     <polygon id="_443301784" class="fil1" points="2.36052,4.84521 6.14679,8.63148 6.13629,8.63135 6.12585,8.63096 6.11549,8.6303 6.10519,8.62938 6.09498,8.62822 6.08483,8.6268 6.07478,8.62513 6.0648,8.62322 6.05491,8.62107 6.04512,8.61868 6.03542,8.61605 6.02581,8.61319 6.01631,8.61011 6.00691,8.6068 5.99762,8.60326 5.98844,8.59951 5.97937,8.59554 5.97042,8.59137 5.96158,8.58698 5.95287,8.58238 5.94429,8.57758 5.93584,8.57258 5.92752,8.56739 5.91933,8.562 5.91129,8.55642 5.90338,8.55066 5.89562,8.54471 5.88801,8.53858 5.88056,8.53228 2.09429,4.746 2.10174,4.75231 2.10935,4.75844 2.11711,4.76439 2.12502,4.77015 2.13306,4.77573 2.14125,4.78112 2.14957,4.78631 2.15802,4.79131 2.16661,4.79611 2.17531,4.8007 2.18415,4.80509 2.1931,4.80927 2.20217,4.81324 2.21135,4.81699 2.22065,4.82052 2.23004,4.82383 2.23955,4.82692 2.24915,4.82978 2.25885,4.83241 2.26865,4.8348 2.27854,4.83694 2.28851,4.83886 2.29857,4.84052 2.30871,4.84194 2.31893,4.84311 2.32922,4.84403 2.33959,4.84469 2.35002,4.84508 "/>
     <polygon id="_443301256" class="fil1" points="1.75508,4.43878 5.54135,8.22506 5.54135,8.24298 1.75508,4.45671 "/>
     <polygon id="_443301832" class="fil1" points="1.75508,4.45671 5.54135,8.24298 5.36011,8.24298 5.35465,8.24256 5.34956,8.24133 5.34494,8.2394 5.34091,8.23685 1.55465,4.45057 1.55867,4.45313 1.56329,4.45506 1.56839,4.45629 1.57385,4.45671 "/>
     <polygon id="_443301616" class="fil1" points="2.64819,4.72605 6.43445,8.51232 6.42747,8.51914 6.42032,8.5258 6.41302,8.53228 6.40556,8.53858 6.39795,8.54471 6.39019,8.55066 6.38229,8.55642 6.37424,8.562 6.36606,8.56739 6.35774,8.57258 6.34928,8.57758 6.3407,8.58238 6.33199,8.58698 6.32316,8.59137 6.3142,8.59554 6.30513,8.59951 6.29595,8.60326 6.28666,8.6068 6.27726,8.61011 6.26776,8.61319 6.25815,8.61605 6.24845,8.61868 6.23866,8.62107 6.22877,8.62322 6.2188,8.62513 6.20874,8.6268 6.1986,8.62822 6.18838,8.62938 6.17809,8.6303 6.16772,8.63096 6.15729,8.63135 6.14679,8.63148 2.36052,4.84521 2.37102,4.84508 2.38145,4.84469 2.39182,4.84403 2.40211,4.84311 2.41233,4.84194 2.42247,4.84052 2.43253,4.83886 2.4425,4.83694 2.45239,4.8348 2.46219,4.83241 2.47189,4.82978 2.48149,4.82692 2.49099,4.82383 2.50039,4.82052 2.50969,4.81699 2.51887,4.81324 2.52794,4.80927 2.53689,4.80509 2.54572,4.8007 2.55443,4.79611 2.56302,4.79131 2.57147,4.78631 2.57979,4.78112 2.58798,4.77573 2.59602,4.77015 2.60393,4.76439 2.61169,4.75844 2.6193,4.75231 2.62675,4.746 2.63406,4.73952 2.6412,4.73287 "/>
     <polygon id="_443301376" class="fil1" points="4.29303,4.84521 8.0793,8.63148 8.0688,8.63135 8.05836,8.63096 8.048,8.6303 8.0377,8.62938 8.02748,8.62822 8.01735,8.6268 8.00729,8.62513 7.99731,8.62322 7.98743,8.62107 7.97763,8.61868 7.96793,8.61605 7.95833,8.61319 7.94882,8.61011 7.93942,8.6068 7.93013,8.60326 7.92095,8.59951 7.91188,8.59554 7.90293,8.59137 7.89409,8.58698 7.88539,8.58238 7.8768,8.57758 7.86835,8.57258 7.86003,8.56739 7.85184,8.562 7.8438,8.55642 7.83589,8.55066 7.82813,8.54471 7.82052,8.53858 7.81306,8.53228 7.80576,8.5258 7.79861,8.51914 4.01235,4.73287 4.01949,4.73952 4.0268,4.746 4.03426,4.75231 4.04187,4.75844 4.04962,4.76439 4.05753,4.77015 4.06557,4.77573 4.07376,4.78112 4.08208,4.78631 4.09054,4.79131 4.09912,4.79611 4.10783,4.8007 4.11666,4.80509 4.12561,4.80927 4.13468,4.81324 4.14386,4.81699 4.15315,4.82052 4.16256,4.82383 4.17206,4.82692 4.18166,4.82978 4.19136,4.83241 4.20116,4.8348 4.21104,4.83694 4.22102,4.83886 4.23108,4.84052 4.24122,4.84194 4.25144,4.84311 4.26173,4.84403 4.27209,4.84469 4.28253,4.84508 "/>
     <polygon id="_443301232" class="fil1" points="4.5807,4.72605 8.36696,8.51232 8.35998,8.51914 8.35283,8.5258 8.34553,8.53228 8.33807,8.53858 8.33046,8.54471 8.3227,8.55066 8.3148,8.55642 8.30675,8.562 8.29857,8.56739 8.29024,8.57258 8.28179,8.57758 8.27321,8.58238 8.2645,8.58698 8.25567,8.59137 8.24671,8.59554 8.23765,8.59951 8.22846,8.60326 8.21917,8.6068 8.20977,8.61011 8.20027,8.61319 8.19066,8.61605 8.18096,8.61868 8.17117,8.62107 8.16128,8.62322 8.15131,8.62513 8.14125,8.6268 8.13111,8.62822 8.12089,8.62938 8.11059,8.6303 8.10023,8.63096 8.0898,8.63135 8.0793,8.63148 4.29303,4.84521 4.30353,4.84508 4.31396,4.84469 4.32433,4.84403 4.33462,4.84311 4.34484,4.84194 4.35498,4.84052 4.36504,4.83886 4.37501,4.83694 4.3849,4.8348 4.39469,4.83241 4.40439,4.82978 4.414,4.82692 4.4235,4.82383 4.4329,4.82052 4.44219,4.81699 4.45138,4.81324 4.46044,4.80927 4.4694,4.80509 4.47823,4.8007 4.48694,4.79611 4.49552,4.79131 4.50398,4.78631 4.5123,4.78112 4.52048,4.77573 4.52853,4.77015 4.53644,4.76439 4.54419,4.75844 4.5518,4.75231 4.55926,4.746 4.56657,4.73952 4.57371,4.73287 "/>
     <polygon id="_443301304" class="fil1" points="4.875,3.09553 8.66126,6.8818 8.66845,6.90501 4.88218,3.11874 "/>
     <polygon id="_443301112" class="fil1" points="4.88218,3.11874 8.66845,6.90501 8.6641,6.9063 8.66036,6.90837 8.6573,6.91113 8.65496,6.91451 8.6534,6.91843 8.65267,6.92279 8.65284,6.92753 8.65396,6.93256 4.86769,3.14629 4.86657,3.14126 4.86641,3.13652 4.86713,3.13215 4.86869,3.12824 4.87103,3.12486 4.87409,3.12209 4.87783,3.12003 "/>
     <polygon id="_443301160" class="fil1" points="4.77967,2.38512 8.56594,6.17139 8.56548,6.17139 4.77922,2.38512 "/>
     <polygon id="_443301208" class="fil1" points="4.86769,3.14629 8.65396,6.93256 8.78104,7.33833 4.99478,3.55206 "/>
     <polygon id="_443302600" class="fil1" points="4.99478,3.55206 8.78104,7.33833 8.78302,7.34324 8.78572,7.34788 8.78905,7.35216 5.00278,3.56589 4.99945,3.56161 4.99675,3.55697 "/>
     <polygon id="_443301928" class="fil1" points="5.04022,3.66138 8.82649,7.44765 8.827,7.45169 8.8275,7.45613 8.82799,7.46096 8.82846,7.46616 8.82893,7.47172 8.82939,7.47764 8.82983,7.48391 8.83026,7.4905 5.04399,3.70423 5.04356,3.69763 5.04312,3.69137 5.04266,3.68545 5.0422,3.67989 5.04172,3.67469 5.04124,3.66986 5.04074,3.66542 "/>
     <polygon id="_443302288" class="fil1" points="5.02548,3.57943 8.81175,7.3657 8.81291,7.37098 8.81404,7.37624 8.81514,7.38149 8.81621,7.38671 8.81725,7.39191 8.81826,7.39709 8.81923,7.40225 8.82018,7.40739 8.82109,7.4125 8.82196,7.41759 8.82281,7.42267 8.82361,7.42771 8.82439,7.43273 8.82513,7.43773 8.82583,7.4427 8.82649,7.44765 5.04022,3.66138 5.03956,3.65643 5.03886,3.65146 5.03812,3.64646 5.03735,3.64144 5.03654,3.63639 5.0357,3.63132 5.03482,3.62623 5.03391,3.62112 5.03296,3.61598 5.03199,3.61082 5.03098,3.60564 5.02994,3.60044 5.02887,3.59522 5.02777,3.58997 5.02664,3.58471 "/>
     <polygon id="_443302384" class="fil1" points="4.74447,2.23702 8.53074,6.0233 8.53483,6.02823 8.5387,6.03334 8.54235,6.03863 8.54578,6.04408 8.54896,6.04969 8.55189,6.05544 8.55457,6.06134 8.55699,6.06737 8.55914,6.07354 8.56102,6.07982 8.56262,6.08622 8.56393,6.09272 8.56493,6.09932 4.77867,2.31305 4.77766,2.30645 4.77635,2.29994 4.77475,2.29355 4.77287,2.28727 4.77072,2.2811 4.7683,2.27507 4.76562,2.26917 4.76269,2.26341 4.75951,2.25781 4.75609,2.25236 4.75244,2.24707 4.74856,2.24196 "/>
     <polygon id="_443302336" class="fil1" points="4.49022,2.10352 8.27649,5.88979 8.28481,5.89929 8.29281,5.90907 8.30048,5.91912 8.30782,5.92943 8.3148,5.94 8.32143,5.95081 8.3277,5.96186 8.33359,5.97314 4.54733,2.18687 4.54143,2.17559 4.53517,2.16454 4.52854,2.15373 4.52155,2.14316 4.51422,2.13285 4.50655,2.1228 4.49854,2.11302 "/>
     <polygon id="_443302192" class="fil1" points="5.11747,2.43962 8.90374,6.22589 8.89756,6.22169 8.8911,6.21771 8.88439,6.21394 8.8774,6.21037 8.87015,6.207 8.86262,6.20382 8.85481,6.20083 8.84674,6.19802 8.83839,6.19539 8.82975,6.19293 8.82084,6.19064 8.81165,6.18851 8.80217,6.18653 8.79241,6.18471 8.78235,6.18303 8.77202,6.18149 8.76139,6.18008 8.75046,6.17881 8.73925,6.17765 8.72774,6.17662 8.71593,6.1757 8.70383,6.17489 8.69142,6.17418 8.67871,6.17357 8.66569,6.17305 8.65237,6.17261 8.63875,6.17226 8.62481,6.17198 8.61056,6.17178 8.596,6.17164 8.58113,6.17156 8.56594,6.17153 4.77967,2.38526 4.79486,2.38529 4.80974,2.38537 4.8243,2.38551 4.83854,2.38571 4.85248,2.38599 4.86611,2.38634 4.87943,2.38678 4.89244,2.3873 4.90515,2.38791 4.91756,2.38862 4.92967,2.38943 4.94147,2.39035 4.95298,2.39138 4.9642,2.39254 4.97512,2.39381 4.98575,2.39522 4.99609,2.39676 5.00614,2.39844 5.0159,2.40026 5.02538,2.40224 5.03457,2.40437 5.04348,2.40666 5.05212,2.40912 5.06047,2.41175 5.06855,2.41456 5.07635,2.41755 5.08388,2.42072 5.09113,2.4241 5.09812,2.42767 5.10483,2.43144 5.11129,2.43542 "/>
     <polygon id="_443302480" class="fil1" points="4.84533,3.04367 8.6316,6.82994 8.63517,6.83399 8.63857,6.83819 8.64182,6.84252 8.6449,6.847 8.6478,6.8516 8.65053,6.85633 8.65307,6.86119 8.65541,6.86617 8.65757,6.87127 8.65952,6.87648 8.66126,6.8818 4.875,3.09553 4.87325,3.09021 4.8713,3.085 4.86915,3.0799 4.8668,3.07492 4.86426,3.07006 4.86154,3.06533 4.85863,3.06072 4.85555,3.05625 4.85231,3.05192 4.8489,3.04772 "/>
     <polygon id="_443301856" class="fil1" points="4.77922,2.38512 8.56548,6.17139 8.56468,6.17821 8.56355,6.18494 8.56212,6.19156 8.56039,6.19806 8.55836,6.20444 8.55605,6.2107 8.55346,6.21681 8.55061,6.22279 8.54749,6.22861 8.54411,6.23426 8.5405,6.23976 8.53664,6.24507 8.53256,6.2502 8.52824,6.25514 8.52372,6.25988 8.51899,6.26442 8.51406,6.26874 8.50893,6.27283 8.50363,6.2767 8.49814,6.28033 8.49249,6.28371 8.48668,6.28684 8.48071,6.28971 8.4746,6.29231 8.46835,6.29463 8.46198,6.29667 8.45548,6.29842 8.44887,6.29986 8.44215,6.301 8.43533,6.30182 8.42842,6.30232 8.42143,6.30249 8.33358,6.30249 4.54731,2.51622 4.63516,2.51622 4.64215,2.51605 4.64906,2.51555 4.65588,2.51473 4.6626,2.51359 4.66921,2.51215 4.67571,2.5104 4.68209,2.50836 4.68833,2.50604 4.69444,2.50344 4.70041,2.50057 4.70622,2.49744 4.71187,2.49406 4.71736,2.49043 4.72267,2.48656 4.72779,2.48246 4.73272,2.47815 4.73745,2.47361 4.74198,2.46887 4.74629,2.46393 4.75037,2.4588 4.75423,2.45348 4.75785,2.44799 4.76122,2.44233 4.76434,2.43652 4.76719,2.43054 4.76978,2.42443 4.77209,2.41817 4.77412,2.41179 4.77585,2.40528 4.77728,2.39867 4.77841,2.39194 "/>
     <polygon id="_443302000" class="fil1" points="5.28,3.61554 9.06627,7.40181 9.06611,7.41204 9.06559,7.42189 9.06471,7.43135 9.06346,7.44046 9.06184,7.44919 9.05985,7.45757 9.0575,7.4656 9.05476,7.47329 9.05166,7.48063 9.04818,7.48765 9.04432,7.49434 9.04009,7.50071 9.03548,7.50678 9.03049,7.51253 9.02512,7.51798 9.01936,7.52315 5.23309,3.73687 5.23885,3.73171 5.24422,3.72626 5.24921,3.7205 5.25382,3.71444 5.25806,3.70807 5.26191,3.70138 5.26539,3.69436 5.2685,3.68702 5.27123,3.67933 5.27359,3.6713 5.27557,3.66292 5.27719,3.65419 5.27844,3.64508 5.27933,3.63561 5.27985,3.62577 "/>
     <polygon id="_443302216" class="fil1" points="5.23309,3.73687 9.01936,7.52315 9.01653,7.52547 9.01362,7.52771 9.01063,7.52987 9.00758,7.53196 9.00445,7.53397 9.00125,7.5359 8.99798,7.53775 8.99463,7.53953 8.9912,7.54124 8.9877,7.54287 8.98413,7.54443 8.98049,7.54591 8.97676,7.54733 8.97297,7.54867 8.96909,7.54994 8.96515,7.55115 8.96112,7.55229 8.95702,7.55336 8.95285,7.55437 8.94859,7.5553 8.94426,7.55618 8.93985,7.55699 8.93537,7.55774 8.93081,7.55842 8.92617,7.55904 8.92145,7.55961 8.91665,7.56011 8.91178,7.56056 8.90682,7.56094 8.90179,7.56127 8.89668,7.56154 8.89149,7.56176 5.10522,3.77548 5.11041,3.77527 5.11552,3.775 5.12056,3.77467 5.12551,3.77428 5.13039,3.77384 5.13518,3.77333 5.1399,3.77277 5.14454,3.77215 5.1491,3.77146 5.15359,3.77072 5.15799,3.76991 5.16232,3.76903 5.16658,3.76809 5.17076,3.76709 5.17485,3.76602 5.17888,3.76488 5.18283,3.76367 5.1867,3.7624 5.1905,3.76106 5.19422,3.75964 5.19787,3.75815 5.20144,3.75659 5.20494,3.75496 5.20836,3.75326 5.21171,3.75148 5.21498,3.74963 5.21819,3.7477 5.22131,3.74569 5.22437,3.7436 5.22735,3.74144 5.23026,3.7392 "/>
     <polygon id="_443302240" class="fil1" points="5.27754,2.7244 9.06381,6.51067 9.06627,7.40181 5.28,3.61554 "/>
     <polygon id="_443302648" class="fil1" points="5.20111,2.41897 8.98738,6.20524 8.99339,6.21259 8.99913,6.22023 9.00461,6.22818 9.00982,6.23644 9.01478,6.24502 9.01947,6.25393 9.02392,6.26317 9.02811,6.27275 9.03206,6.28268 9.03576,6.29296 9.03922,6.30359 9.04243,6.31459 9.04541,6.32597 9.04816,6.33772 9.05067,6.34986 9.05296,6.36239 9.05502,6.37532 9.05685,6.38865 9.05846,6.40239 9.05986,6.41656 9.06104,6.43115 9.06201,6.44616 9.06277,6.46162 9.06332,6.47752 9.06366,6.49387 9.06381,6.51067 5.27754,2.7244 5.27739,2.70759 5.27705,2.69124 5.2765,2.67535 5.27574,2.65989 5.27478,2.64487 5.27359,2.63029 5.2722,2.61612 5.27058,2.60238 5.26875,2.58905 5.26669,2.57612 5.26441,2.56359 5.26189,2.55145 5.25915,2.5397 5.25617,2.52832 5.25295,2.51732 5.24949,2.50669 5.24579,2.49641 5.24184,2.48648 5.23765,2.4769 5.2332,2.46766 5.22851,2.45875 5.22355,2.45017 5.21834,2.44191 5.21286,2.43396 5.20712,2.42631 "/>
    </g>
    <path id="_457197464" class="fil1" d="M4.77967 2.31291c0.177965,0 0.298933,0.0105394 0.37963,0.0679252 0.0833189,0.059252 0.117768,0.161827 0.118236,0.343567l0.00246063 0.891138c0.000149606,0.0555827 -0.0151929,0.0945748 -0.0469055,0.121335 -0.0298701,0.0252087 -0.0720787,0.0366024 -0.127874,0.0386102 -0.00223228,7.48031e-005 -0.0204449,0.000330709 -0.0407756,0.000590551l-0.017063 0.00023622c0.000779528,0.0215315 0.00148031,0.0449764 0.00211024,0.0697756 0.000673228,0.0267795 0.00629134,0.0263031 -0.0164409,0.0262441l0 0.0547047c0.0261142,0.000177165 0.0182795,0.00373228 0.0187795,0.0353819 0.00151181,0.0955354 0.00229921,0.197437 0.00265354,0.28237 0.0455827,0.00853543 0.0796772,0.0402756 0.0796772,0.0778425l0 0.113185c0,0.0114961 -0.0122283,0.0208976 -0.0271811,0.0208976l-0.181232 0 0 -0.0182559c-0.00320472,0.000216535 -0.0064252,0.000326772 -0.00965748,0.000326772l-0.170449 0 0 -0.000448819c0,-0.0285079 -0.00266535,-0.0564094 -0.00776378,-0.0834685l-0.0466024 0c0.00562598,0.0269567 0.00858268,0.0548937 0.00858268,0.0835197 0,0.112335 -0.0455433,0.214039 -0.119161,0.287665 -0.073626,0.073622 -0.175339,0.119161 -0.287669,0.119161 -0.112331,0 -0.214039,-0.0455394 -0.287665,-0.119161 -0.073622,-0.073626 -0.119161,-0.175335 -0.119161,-0.287665 0,-0.028626 0.00295669,-0.056563 0.00858268,-0.0835197l-0.0444213 0c-0.00508268,0.0270591 -0.00774409,0.0549606 -0.00774409,0.0834685l0 0.000448819 -0.00405118 0c-0.00114567,0.0100551 -0.00948425,0.0179291 -0.0195157,0.0179291l-0.989858 0c-0.0108031,0 -0.0196457,-0.0091378 -0.0196457,-0.0202992l0 -0.0182126c0,-0.000185039 2.3622e-005,-0.000366142 6.69291e-005,-0.000535433 -0.00096063,-0.0213465 -0.00339764,-0.042315 -0.00721654,-0.0627992l-0.0436339 0c0.00562598,0.0269567 0.00858268,0.0548937 0.00858268,0.0835197 0,0.112335 -0.0455394,0.214039 -0.119161,0.287665 -0.073622,0.073622 -0.175335,0.119161 -0.287665,0.119161 -0.112335,0 -0.214043,-0.0455394 -0.287665,-0.119161 -0.073626,-0.073626 -0.119165,-0.175335 -0.119165,-0.287665 0,-0.028626 0.00295669,-0.056563 0.00858268,-0.0835197l-0.0436063 0c-0.00504331,0.0270591 -0.0076811,0.0549606 -0.0076811,0.0834685l0 0.000448819 -0.155906 0 0 0.0179291 -0.181232 0c-0.0149528,0 -0.027185,-0.00940157 -0.027185,-0.0208976l0 -0.113185c0,-0.0349764 0.0295591,-0.0649055 0.0704252,-0.075752 0.00666142,-0.10211 0.0226496,-0.225677 0.0596654,-0.31985l0.000393701 0c0.00709449,-0.0182323 0.0153622,-0.0364646 0.0259488,-0.0547008l-0.000275591 0c0.00840551,-0.0144528 0.0175709,-0.0276102 0.0275906,-0.0391299 0.12724,-0.145559 0.402965,-0.223634 0.527114,-0.252575 0.00267323,-0.00929921 0.00717323,-0.0169213 0.0127441,-0.0216339 -0.0133976,-0.0193189 -0.0218504,-0.0475866 -0.0218504,-0.0790827 0,-0.0582362 0.0288898,-0.105449 0.0645276,-0.105449 0.0356417,0 0.0295906,0.0565709 0.0295906,0.114807 0,0.026626 0.00126378,0.0489882 -0.000767717,0.0654213l0.0157598 0c0.0153898,0 0.0433543,-0.0125945 0.0621496,-0.0279843l0.495453 -0.405772c0.0187953,-0.0153898 0.0215748,-0.0279803 0.00618504,-0.0279803l-0.00180709 0 0.00982677 -0.00777953 0.0144882 -0.0114764c0.0607953,-0.0481339 0.135583,-0.0747874 0.212913,-0.0747874l1.5875 0c0.0594646,0 0.11328,0.039311 0.13076,0.096622l0.00718504 0.0232126c-0.0123661,0.0023189 -0.0187835,0.0138228 -0.0144882,0.0275512l0.127083 0.405772c0.00419291,0.0133898 0.0172441,0.0246535 0.0307047,0.0273622 0.00626378,0.0282283 0.0112992,0.0556339 0.0147441,0.0819528 0.00137795,0.010248 0.00262992,0.0248189 0.00376772,0.0428543 0.00677953,-7.08661e-005 0.0135669,-0.000149606 0.0196024,-0.000224409 0.0189094,-0.000240157 0.0361693,-0.000488189 0.0390827,-0.000594488 0.0394921,-0.00141732 0.0674173,-0.00783858 0.0837874,-0.0216535 0.0145354,-0.0122598 0.0215512,-0.0335157 0.0214646,-0.0662205l-0.00245669 -0.891138c-0.000401575,-0.15563 -0.0260433,-0.240724 -0.088,-0.284783 -0.0645748,-0.0459252 -0.174087,-0.0543583 -0.337799,-0.0543583l0 -0.000141732 -0.000456693 0c-0.00691339,0.0732717 -0.0690591,0.131102 -0.144059,0.131102l-0.0878465 0c-0.0608622,0.121488 -0.186693,0.20539 -0.331169,0.20539l-0.337756 0c-0.0181732,0 -0.0330394,-0.0148661 -0.0330394,-0.0330394l0 -0.105516 -0.31572 0c-0.0254724,0 -0.0463031,-0.0208346 -0.0463031,-0.0463031 0,-0.0254685 0.0208307,-0.0463071 0.0463031,-0.0463071l0.31572 0 0 -0.277831 -0.31572 0c-0.0254724,0 -0.0463031,-0.0208346 -0.0463031,-0.0463031 0,-0.0254685 0.0208307,-0.0463031 0.0463031,-0.0463031l0.31572 0 0 -0.105516c0,-0.0181772 0.0148661,-0.0330394 0.0330394,-0.0330394l0.337756 0c0.144488,0 0.270327,0.0839173 0.331185,0.205417l0.0878307 0c0.073315,0 0.134346,0.0552559 0.143508,0.126181l0.00100787 0 0 -0.000141732z"/>
   </g>
  </g>
  <path class="fil2" d="M3.41333 -3.93701e-006c1.88513,0 3.41333,1.5282 3.41333,3.41333 0,1.88513 -1.5282,3.41333 -3.41333,3.41333 -1.88513,0 -3.41333,-1.5282 -3.41333,-3.41333 0,-1.88513 1.5282,-3.41333 3.41333,-3.41333z"/>
  <path class="fil3" d="M5.00719 3.70451c0.0092874,0 0.0368228,-0.000251969 0.0564055,-0.0005 0.0189134,-0.000240157 0.0361693,-0.000488189 0.0390827,-0.000594488 0.0394921,-0.00142126 0.0674173,-0.00783858 0.0837874,-0.0216496 0.0145315,-0.0122598 0.0215551,-0.0335157 0.0214646,-0.0662244l-0.00245669 -0.891138c-0.000405512,-0.15563 -0.0260433,-0.240724 -0.0879961,-0.284783 -0.0645787,-0.0459252 -0.174091,-0.0543583 -0.337803,-0.0543583l0 -0.000141732 -0.151354 0.000169291 0 -0.0720669 0.151354 -0.000169291 0 -0.000141732c0.177965,0 0.298937,0.0105394 0.37963,0.0679252 0.0833189,0.059252 0.117768,0.161823 0.11824,0.343567l0.00245276 0.891138c0.000153543,0.0555827 -0.015185,0.0945787 -0.0469016,0.121335 -0.0298701,0.0252087 -0.0720827,0.0366024 -0.127874,0.0386063 -0.00223228,7.87402e-005 -0.0204449,0.000334646 -0.0407795,0.000594488 -0.0306339,0.000393701 -0.0549843,0.000787402 -0.057252,0.000787402l0 -0.0723543z"/>
  <path class="fil4" d="M4.47678 2.18687l0.15837 0c0.0795906,0 0.144701,0.0651142 0.144701,0.144701l0 0.0399488c0,0.0795827 -0.0651142,0.144701 -0.144701,0.144701l-0.15837 0 0 -0.32935z"/>
  <path class="fil5" d="M3.48332 2.16631l0 0c0,-0.0254685 0.0208307,-0.0463031 0.0463031,-0.0463031l0.370441 0c0.0254685,0 0.0463031,0.0208346 0.0463031,0.0463031l0 0c0,0.0254685 -0.0208346,0.0463031 -0.0463031,0.0463031l-0.370441 0c-0.0254724,0 -0.0463031,-0.0208346 -0.0463031,-0.0463031z"/>
  <path class="fil5" d="M3.48332 2.53675l0 0c0,-0.0254685 0.0208307,-0.0463071 0.0463031,-0.0463071l0.370441 0c0.0254685,0 0.0463031,0.0208386 0.0463031,0.0463071l0 0c0,0.0254685 -0.0208346,0.0463031 -0.0463031,0.0463031l-0.370441 0c-0.0254724,0 -0.0463031,-0.0208346 -0.0463031,-0.0463031z"/>
  <path class="fil6" d="M3.87839 1.98145l0.337756 0c0.203543,0 0.370079,0.166539 0.370079,0.370079l0 3.93701e-006c0,0.203547 -0.166535,0.370079 -0.370079,0.370079l-0.337756 0c-0.0181732,0 -0.0330433,-0.0148661 -0.0330433,-0.0330394l0 -0.674079c0,-0.0181772 0.0148701,-0.0330433 0.0330433,-0.0330433z"/>
  <path class="fil7" d="M4.01084 2.12804l3.93701e-006 0c0.0154764,0 0.0281378,0.0126614 0.0281378,0.0281378l0 0.406772c0,0.0154764 -0.0126614,0.0281378 -0.0281378,0.0281378l-3.93701e-006 0c-0.0154803,0 -0.0281378,-0.0126614 -0.0281378,-0.0281378l0 -0.406772c0,-0.0154764 0.0126575,-0.0281378 0.0281378,-0.0281378z"/>
  <path class="fil7" d="M4.11333 2.12804l3.93701e-006 0c0.0154764,0 0.0281378,0.0126614 0.0281378,0.0281378l0 0.406772c0,0.0154764 -0.0126614,0.0281378 -0.0281378,0.0281378l-3.93701e-006 0c-0.0154764,0 -0.0281378,-0.0126614 -0.0281378,-0.0281378l0 -0.406772c0,-0.0154764 0.0126614,-0.0281378 0.0281378,-0.0281378z"/>
  <path class="fil7" d="M4.21583 2.12804l3.93701e-006 0c0.0154803,0 0.0281378,0.0126614 0.0281378,0.0281378l0 0.406772c0,0.0154764 -0.0126575,0.0281378 -0.0281378,0.0281378l-3.93701e-006 0c-0.0154764,0 -0.0281378,-0.0126614 -0.0281378,-0.0281378l0 -0.406772c0,-0.0154764 0.0126614,-0.0281378 0.0281378,-0.0281378z"/>
  <rect class="fil8" x="1.87805" y="3.94211" width="2.97331" height="0.412763"/>
  <path class="fil9" d="M4.29303 4.17589c-0.144972,0 -0.262496,0.117524 -0.262496,0.262492 0,0.144972 0.117524,0.262496 0.262496,0.262496 0.144972,0 0.262496,-0.117524 0.262496,-0.262496 0,-0.144969 -0.117524,-0.262492 -0.262496,-0.262492z"/>
  <path class="fil10" d="M4.29303 4.33907c-0.0548465,0 -0.099311,0.0444685 -0.099311,0.099311 0,0.0548465 0.0444646,0.099315 0.099311,0.099315 0.0548465,0 0.099311,-0.0444685 0.099311,-0.099315 0,-0.0548425 -0.0444646,-0.099311 -0.099311,-0.099311z"/>
  <path class="fil10" d="M4.29303 4.03156c-0.112331,0 -0.214039,0.0455394 -0.287665,0.119161 -0.073622,0.073622 -0.119161,0.175331 -0.119161,0.287661 0,0.112335 0.0455394,0.214043 0.119161,0.287669 0.073626,0.073622 0.175335,0.119161 0.287665,0.119161 0.112331,0 0.214043,-0.0455394 0.287665,-0.119161 0.073622,-0.073626 0.119161,-0.175335 0.119161,-0.287669 0,-0.112331 -0.0455394,-0.214039 -0.119161,-0.287661 -0.073622,-0.073626 -0.175335,-0.119161 -0.287665,-0.119161zm-0.143059 0.263764c0.0366063,-0.0366063 0.087189,-0.059248 0.143059,-0.059248 0.055874,0 0.106457,0.0226417 0.143063,0.059248 0.0366063,0.0366063 0.059248,0.087189 0.059248,0.143059 0,0.055874 -0.0226417,0.106457 -0.059248,0.143063 -0.0366063,0.0366063 -0.087189,0.059252 -0.143063,0.059252 -0.0558701,0 -0.106453,-0.0226457 -0.143059,-0.059252 -0.0366063,-0.0366063 -0.059252,-0.087189 -0.059252,-0.143063 0,-0.0558701 0.0226457,-0.106453 0.059252,-0.143059z"/>
  <path class="fil11" d="M4.29303 4.17589c-0.144972,0 -0.262496,0.117524 -0.262496,0.262492 0,0.144972 0.117524,0.262496 0.262496,0.262496 0.144972,0 0.262496,-0.117524 0.262496,-0.262496 0,-0.144969 -0.117524,-0.262492 -0.262496,-0.262492zm-0.143059 0.119433c0.0366063,-0.0366063 0.087189,-0.059248 0.143059,-0.059248 0.055874,0 0.106457,0.0226417 0.143063,0.059248 0.0366063,0.0366063 0.059248,0.087189 0.059248,0.143059 0,0.055874 -0.0226417,0.106457 -0.059248,0.143063 -0.0366063,0.0366063 -0.087189,0.059252 -0.143063,0.059252 -0.0558701,0 -0.106453,-0.0226457 -0.143059,-0.059252 -0.0366063,-0.0366063 -0.059252,-0.087189 -0.059252,-0.143063 0,-0.0558701 0.0226457,-0.106453 0.059252,-0.143059z"/>
  <path class="fil9" d="M2.36052 4.17589c-0.144972,0 -0.262496,0.117524 -0.262496,0.262492 0,0.144972 0.117524,0.262496 0.262496,0.262496 0.144972,0 0.262492,-0.117524 0.262492,-0.262496 0,-0.144969 -0.11752,-0.262492 -0.262492,-0.262492z"/>
  <path class="fil10" d="M2.36052 4.33907c-0.0548465,0 -0.099315,0.0444685 -0.099315,0.099311 0,0.0548465 0.0444685,0.099315 0.099315,0.099315 0.0548425,0 0.099311,-0.0444685 0.099311,-0.099315 0,-0.0548425 -0.0444685,-0.099311 -0.099311,-0.099311z"/>
  <path class="fil10" d="M2.36052 4.03156c-0.112335,0 -0.214039,0.0455394 -0.287665,0.119161 -0.073626,0.073622 -0.119161,0.175331 -0.119161,0.287661 0,0.112335 0.0455354,0.214043 0.119161,0.287669 0.073626,0.073622 0.175331,0.119161 0.287665,0.119161 0.112331,0 0.214043,-0.0455394 0.287665,-0.119161 0.073622,-0.073626 0.119161,-0.175335 0.119161,-0.287669 0,-0.112331 -0.0455394,-0.214039 -0.119161,-0.287661 -0.073622,-0.073626 -0.175335,-0.119161 -0.287665,-0.119161zm-0.143063 0.263764c0.0366102,-0.0366063 0.087189,-0.059248 0.143063,-0.059248 0.055874,0 0.106457,0.0226417 0.143063,0.059248 0.0366063,0.0366063 0.059248,0.087189 0.059248,0.143059 0,0.055874 -0.0226417,0.106457 -0.059248,0.143063 -0.0366063,0.0366063 -0.087189,0.059252 -0.143063,0.059252 -0.055874,0 -0.106453,-0.0226457 -0.143063,-0.059252 -0.0366024,-0.0366063 -0.059248,-0.087189 -0.059248,-0.143063 0,-0.0558701 0.0226457,-0.106453 0.059248,-0.143059z"/>
  <path class="fil11" d="M2.36052 4.17589c-0.144972,0 -0.262496,0.117524 -0.262496,0.262492 0,0.144972 0.117524,0.262496 0.262496,0.262496 0.144972,0 0.262492,-0.117524 0.262492,-0.262496 0,-0.144969 -0.11752,-0.262492 -0.262492,-0.262492zm-0.143063 0.119433c0.0366102,-0.0366063 0.087189,-0.059248 0.143063,-0.059248 0.055874,0 0.106457,0.0226417 0.143063,0.059248 0.0366063,0.0366063 0.059248,0.087189 0.059248,0.143059 0,0.055874 -0.0226417,0.106457 -0.059248,0.143063 -0.0366063,0.0366063 -0.087189,0.059252 -0.143063,0.059252 -0.055874,0 -0.106453,-0.0226457 -0.143063,-0.059252 -0.0366024,-0.0366063 -0.059248,-0.087189 -0.059248,-0.143063 0,-0.0558701 0.0226457,-0.106453 0.059248,-0.143059z"/>
  <path class="fil12" d="M5.03305 3.85636l-3.32006 0c-0.0190551,0.0288583 -0.0314528,0.0577008 -0.0417598,0.086563l3.36182 0 0 -0.086563z"/>
  <path class="fil13" d="M4.875 3.09552c-0.0174803,-0.0573071 -0.0712953,-0.0966181 -0.13076,-0.0966181l-1.5875 0c-0.0773307,0 -0.152118,0.0266535 -0.212913,0.0747874l-0.024315 0.019252 0.00180709 0c0.0153898,0 0.0126102,0.0125945 -0.00618504,0.0279843l-0.495453 0.405772c-0.0187953,0.0153937 -0.0467598,0.0279843 -0.0621535,0.0279843l-0.0212047 0 -0.0159724 0.0126457c0,0 -0.422906,0.0747874 -0.589937,0.26587 -0.0100197,0.0115157 -0.019185,0.0246732 -0.0275906,0.039126l3.32784 0c0.0255,0 0.0195276,0.00144094 0.0188307,-0.0262402 -0.00215748,-0.085 -0.00515748,-0.154102 -0.00927165,-0.184709 -0.00344094,-0.026315 -0.00847638,-0.0537244 -0.0147441,-0.0819528 -0.0134567,-0.00270866 -0.0265079,-0.0139724 -0.0307008,-0.0273622l-0.127083 -0.405772c-0.00429921,-0.0137283 0.00212205,-0.0252362 0.0144882,-0.0275551 -0.00243701,-0.00776772 -0.00483858,-0.0155118 -0.00718504,-0.0232126z"/>
  <path class="fil14" d="M2.92933 3.08517l-0.00982283 0.00777559 0.00180709 0c0.0153898,0 0.0126102,0.0125945 -0.00618504,0.0279843l-0.495453 0.405772c-0.0187953,0.0153937 -0.0467598,0.0279843 -0.0621535,0.0279843l-0.0212047 0 -0.00982677 0.00777953 0.0588346 0c0.0159094,0 0.044815,-0.0130157 0.0642402,-0.0289252l0.512157 -0.419449c0.0194213,-0.0159094 0.0222992,-0.0289213 0.00638976,-0.0289213l-0.0387835 0z"/>
  <path class="fil15" d="M4.69746 3.13011c0.0165669,0 0.031,0.0126614 0.0349055,0.0287795l0.0857677 0.38261c0.00222047,0.010063 0,0.0210394 -0.00660236,0.0293189 -0.00650394,0.00783858 -0.0165906,0.0126299 -0.0270984,0.0126299 -0.543945,0 -0.32726,0 -0.871209,0 -0.018815,0 -0.0344921,-0.0151969 -0.0344921,-0.0344606l0 -0.384862c0,-0.0187835 0.0156772,-0.0344606 0.0344921,-0.0344606 0.514976,0 0.269264,0.000444882 0.784236,0.000444882z"/>
  <path class="fil16" d="M4.69746 3.13907c0.00602756,0 0.0117047,0.00229528 0.0162717,0.00605906 0.00483465,0.00398425 0.00843701,0.00959055 0.00995669,0.0158622l3.93701e-006 0 0 3.93701e-006 -3.14961e-005 7.87402e-006 0.000169291 0.000602362 0.0855945 0.381823c0.000838583,0.00380709 0.000822835,0.00781496 -3.93701e-005,0.0116496 -0.000814961,0.0036063 -0.00239764,0.00705906 -0.00474409,0.0100472l0 -3.93701e-006 -0.000106299 0.000125984 -3.93701e-006 -7.87402e-006 -0.000137795 0.000173228c-0.0023622,0.00275591 -0.00537402,0.00500394 -0.00875197,0.00657874 -0.00346457,0.00161417 -0.00730315,0.00250394 -0.0112087,0.00250394l-0.871209 0c-0.00703543,0 -0.0134724,-0.00284646 -0.0181181,-0.00749213 -0.00456693,-0.00455906 -0.00741732,-0.0109055 -0.00741732,-0.0180118l0 -0.384862c0,-0.00694488 0.00290157,-0.013315 0.0075315,-0.0179449 0.00465354,-0.00464961 0.0110472,-0.00755906 0.0180039,-0.00755906 0.279929,0 0.336028,9.44882e-005 0.392122,0.000185039 0.0785315,0.000125984 0.157067,0.000259843 0.392114,0.000259843zm0.0276024 -0.00772047c-0.00767323,-0.00633071 -0.0172992,-0.0101929 -0.0276024,-0.0101929 -0.279925,0 -0.336024,-9.44882e-005 -0.392114,-0.000185039 -0.0785315,-0.000125984 -0.157071,-0.000259843 -0.392122,-0.000259843 -0.0118465,0 -0.0227087,0.00493307 -0.0305945,0.012811 -0.00790551,0.00790157 -0.0128543,0.0187677 -0.0128543,0.0306063l0 0.384862c0,0.0120354 0.0048937,0.0228386 0.0127362,0.0306693 0.00790945,0.00790157 0.0188189,0.0127441 0.0307126,0.0127441l0.871209 0c0.00655512,0 0.0129724,-0.00148819 0.0187677,-0.00418504 0.00567717,-0.00264567 0.0107835,-0.00648819 0.0148543,-0.0112598 0.000165354,-0.000173228 0.000322835,-0.000362205 0.000476378,-0.000555118l-0.007 -0.00558268 0.00699606 0.00555906c0.0041063,-0.00514567 0.00687008,-0.011126 0.00827953,-0.0173858 0.00142913,-0.00635433 0.00144488,-0.0130354 3.54331e-005,-0.0194173l-0.0856063 -0.381886c-4.33071e-005,-0.000299213 -9.44882e-005,-0.000606299 -0.000169291,-0.000909449l-2.75591e-005 7.87402e-006c-0.00244094,-0.0100669 -0.0082126,-0.0190472 -0.0159764,-0.0254409z"/>
  <path class="fil15" d="M2.64473 3.58345c-0.014437,0 -0.0275433,-0.00916929 -0.0323346,-0.0222756 -0.00482283,-0.0135157 -0.00092126,-0.028874 0.0100591,-0.0384921l0.390004 -0.331331c0.0458858,-0.0389646 0.104106,-0.061685 0.163984,-0.061685l0.462638 0c0.0192559,0 0.0345827,0.0156772 0.0345827,0.0344606l0 0.384862c0,0.0192638 -0.0153268,0.0344606 -0.0345827,0.0344606l-0.99435 0z"/>
  <path class="fil17" d="M2.64473 3.58345c-0.014437,0 -0.0275433,-0.00916929 -0.0323346,-0.0222756 -0.00482283,-0.0135157 -0.00092126,-0.028874 0.0100591,-0.0384921l0.0917087 -0.0779134 0.0677047 -0.00723228c-0.00129134,0.0245709 0.0342638,0.0297441 0.060122,0.0213386l0.0553661 0.124575 -0.252626 0z"/>
  <path class="fil18" d="M1.67675 3.92702c-0.0429409,0.109252 -0.0575866,0.258063 -0.0621929,0.367035l0 0.00977165c0.00117323,0.0345236 0.0148819,0.0673031 0.0385197,0.0920827 0.0261811,0.0270984 0.0624488,0.0428701 0.100047,0.0428701l0.157858 0 0 -0.000448819c0,-0.248732 0.200701,-0.451209 0.449535,-0.451209 0.248827,0 0.449559,0.202476 0.449559,0.451209l0 0.000448819 1.03254 0 0 -0.000448819c0,-0.248732 0.202504,-0.451209 0.45124,-0.451209 0.248835,0 0.451783,0.202476 0.451783,0.451209l0 0.000448819 0.170449 0c0.0371575,0 0.0726339,-0.0144409 0.0983622,-0.0406181 0.0262165,-0.0263031 0.0406496,-0.0616811 0.0402087,-0.0983976 -0.000208661,-0.0932953 -0.000976378,-0.220114 -0.00283071,-0.33735 -0.000515748,-0.0325787 0.00780315,-0.0353937 -0.0211693,-0.0353898l-3.35391 -3.93701e-006z"/>
  <path class="fil19" d="M3.78972 4.31919l-0.931205 0c-0.0269331,0 -0.0489724,0.0227638 -0.0489724,0.0505984l0 0.0453898c0,0.00287008 0.00226772,0.0052126 0.00504331,0.0052126l1.01906 0c0.00277953,0 0.00504331,-0.00234252 0.00504331,-0.0052126l0 -0.0453898c0,-0.0278346 -0.0220354,-0.0505984 -0.0489724,-0.0505984z"/>
  <path class="fil20" d="M3.81905 4.45671l-0.989858 0c-0.0108031,0 -0.0196457,-0.00912992 -0.0196457,-0.0202992l0 -0.0182087c0,-0.00115354 0.000909449,-0.00209055 0.00202362,-0.00209055l1.0251 0c0.00111417,0 0.00202362,0.000937008 0.00202362,0.00209055l0 0.0182087c0,0.0111693 -0.00883858,0.0202992 -0.0196457,0.0202992z"/>
  <path class="fil21" d="M2.31294 3.37446c-0.0356378,0 -0.0645276,0.0472087 -0.0645276,0.105449 0,0.0314961 0.00845276,0.0597638 0.0218504,0.0790827 -0.00916535,0.00775197 -0.0154331,0.0233819 -0.0154331,0.0414094 0,0.0257362 0.0127677,0.0465984 0.0285157,0.0465984 0.015748,0 0.0130709,-0.0167244 0.0130709,-0.0424606 0,-0.00783465 0.000248031,-0.0156024 0.000149606,-0.0226142 0.00522441,0.00223622 0.0107165,0.00342913 0.016374,0.00342913 0.0356417,0 0.0295906,-0.0378465 0.0295906,-0.0960866 0,-0.0582362 0.00605118,-0.114807 -0.0295906,-0.114807z"/>
  <path class="fil19" d="M1.75508 4.24253l-0.104209 0c-0.057315,0 -0.104205,0.0360394 -0.104205,0.0800984l0 0.113185c0,0.0114961 0.0122283,0.0208937 0.0271811,0.0208937l0.181232 0 0 -0.214177z"/>
  <path class="fil19" d="M4.92575 4.24253l0.104205 0c0.0573189,0 0.104209,0.0360394 0.104209,0.0800984l0 0.113185c0,0.0114961 -0.0122283,0.0208937 -0.0271811,0.0208937l-0.181232 0 0 -0.214177z"/>
  <path class="fil17" d="M3.57449 3.23131l-0.0365118 0c-0.0283937,0 -0.0647362,0.0264449 -0.0516181,0.051622 0.0185512,0.0356024 0.0137559,0.102039 -0.00125984,0.130933 -0.0130984,0.025189 0.0232283,0.0428031 0.0516142,0.0428031l0.0365118 0c0.0283898,0 0.0513268,-0.0232283 0.0516181,-0.0516181l0.00125984 -0.122118c0.000291339,-0.0283937 -0.0232244,-0.051622 -0.0516142,-0.051622zm0.0678701 0.345634l-0.178839 0c0.0013937,-0.0675787 -0.00296063,-0.118858 0.0654134,-0.118858l0.0568346 0c0.0441929,0 0.0598189,0.04 0.0580157,0.0841063l-0.0014252 0.034752z"/>
  <path class="fil17" d="M4.67637 3.23131l-0.0365118 0c-0.0283937,0 -0.0647362,0.0264449 -0.051622,0.051622 0.0185551,0.0356024 0.0137598,0.102039 -0.00125591,0.130933 -0.0130984,0.025189 0.0232283,0.0428031 0.0516142,0.0428031l0.0365118 0c0.0283898,0 0.0513268,-0.0232283 0.0516181,-0.0516181l0.00125984 -0.122118c0.000291339,-0.0283937 -0.0232244,-0.051622 -0.0516142,-0.051622zm0.0678701 0.345634l-0.178839 0c0.0013937,-0.0675787 -0.00296457,-0.118858 0.0654134,-0.118858l0.0568346 0c0.0441929,0 0.0598189,0.04 0.0580157,0.0841063l-0.0014252 0.034752z"/>
  <path class="fil17" d="M4.11319 3.23131l-0.0365079 0c-0.0283937,0 -0.0647402,0.0264449 -0.051622,0.051622 0.0185551,0.0356024 0.0137598,0.102039 -0.00125591,0.130933 -0.0130984,0.025189 0.0232283,0.0428031 0.0516142,0.0428031l0.0365118 0c0.0283898,0 0.0513268,-0.0232283 0.0516181,-0.0516181l0.00125984 -0.122118c0.000291339,-0.0283937 -0.0232244,-0.051622 -0.0516181,-0.051622zm0.067874 0.345634l-0.178839 0c0.0013937,-0.0675787 -0.00296457,-0.118858 0.0654134,-0.118858l0.0568346 0c0.0441929,0 0.0598189,0.04 0.0580157,0.0841063l-0.0014252 0.034752z"/>
  <path class="fil16" d="M2.64473 3.57449c-0.0053622,0 -0.0104606,-0.00168504 -0.0146535,-0.00457087 -0.00420472,-0.00289764 -0.00751969,-0.00698031 -0.00927165,-0.011748l1.9685e-005 -7.87402e-006 -2.3622e-005 -6.29921e-005 3.93701e-006 -3.93701e-006 -7.08661e-005 -0.00019685c-0.00172835,-0.00500394 -0.00187008,-0.0103228 -0.00057874,-0.0152638 0.00129528,-0.00496457 0.00403543,-0.0095748 0.00806299,-0.0131417l7.87402e-006 7.87402e-006 0.00011811 -0.000102362 1.1811e-005 1.5748e-005 0.000322835 -0.000295276 0.389551 -0.330949c0.0223819,-0.0190039 0.0477913,-0.0340118 0.0748937,-0.0442087 0.0265197,-0.00997638 0.0547126,-0.0153425 0.0833189,-0.0153425l0.462638 0c0.00711811,0 0.0135079,0.00287008 0.0181142,0.00746063 0.00464567,0.00463386 0.00751181,0.0110433 0.00751181,0.0180433l0 0.384862c0,0.00716535 -0.00281496,0.0135433 -0.0073937,0.0181063 -0.00460236,0.00458661 -0.0110354,0.00739764 -0.0182323,0.00739764l-0.99435 0zm-0.0247953 0.010122c0.00714567,0.00491732 0.0157756,0.0077874 0.0247953,0.0077874l0.99435 0c0.0120709,0 0.0229528,-0.00480709 0.0308228,-0.0126496 0.00787795,-0.00784252 0.0127126,-0.018689 0.0127126,-0.0307638l0 -0.384862c0,-0.0118819 -0.00488583,-0.0227874 -0.0128268,-0.0307008 -0.00785433,-0.00782677 -0.0186811,-0.0127165 -0.0307087,-0.0127165l-0.462638 0c-0.0307165,0 -0.0610433,0.00578346 -0.0896181,0.0165354 -0.0290276,0.0109173 -0.0562126,0.0269685 -0.0801378,0.0472835l-0.389579 0.330969c-0.000188976,0.000141732 -0.000374016,0.000291339 -0.000555118,0.000452756l1.9685e-005 2.3622e-005c-0.00684646,0.006 -0.0115,0.0137913 -0.0136929,0.022185 -0.00218898,0.0083622 -0.00194488,0.0173189 0.000968504,0.0257008l0.000137795 0.000389764 2.3622e-005 -7.87402e-006c0.00305512,0.00834646 0.00873622,0.0154213 0.0159252,0.020374z"/>
  <path class="fil12" d="M3.73126 3.76825c-0.128803,0.0823071 -0.20528,0.220449 -0.287811,0.294307 -0.52361,0.468587 -0.773665,-0.625783 0.287811,-0.294307z"/>
  <path class="fil22" d="M2.93798 4.17064c0.108449,-0.120106 0.199831,-0.250807 0.383232,-0.315146 0.074315,-0.0260709 0.0899291,-0.0371969 0.170953,-0.0470394l-0.000877953 0.000114173c0.0333268,-0.000779528 0.0467165,0.00360236 0.0779252,0.00953937 -0.0258268,0.000850394 -0.00748031,0.0011378 -0.0384528,-0.00147638 -0.0745866,-0.00629528 -0.136713,0.0263228 -0.204496,0.0522717 -0.190693,0.0730079 -0.266874,0.210126 -0.38765,0.340969l-0.000633858 -0.0392323z"/>
  <path class="fil22" d="M3.26483 3.88017c0.0126102,-0.000299213 0.0255079,-0.000122047 0.0387441,0.000590551 0.0664409,0.00358268 0.0822205,-7.48031e-005 0.148673,0.0183425l-0.000724409 -0.000192913c0.0262795,0.0101299 0.0353268,0.0178622 0.0577835,0.0325551 -0.0204409,-0.00765748 -0.00620472,-0.00151969 -0.0295512,-0.0135433 -0.0562244,-0.0289488 -0.115256,-0.0234882 -0.176555,-0.0250591 -0.0134685,-0.00034252 -0.0265157,-0.000161417 -0.0391929,0.000503937 0.00195276,-0.00412598 0.00223228,-0.0088622 0.000822835,-0.0131969z"/>
  <path class="fil22" d="M3.13419 3.96169c0.000716535,3.93701e-005 0.00142913,6.29921e-005 0.00214961,0.000102362 0.0786417,0.00424016 0.0973189,-9.05512e-005 0.175972,0.0217087l-0.000854331 -0.000228346c0.0311063,0.0119882 0.041811,0.0211417 0.0683976,0.0385315 -0.0241969,-0.00906299 -0.00734646,-0.00179921 -0.0349803,-0.0160276 -0.0665512,-0.0342638 -0.136421,-0.0278031 -0.20898,-0.0296614l-0.00155906 -2.75591e-005c0.00162598,-0.00465354 0.0015748,-0.00977559 -0.000145669,-0.0143976z"/>
  <path class="fil22" d="M3.34364 3.86044c0.00551969,-0.00636614 0.0107362,-0.0129409 0.0156024,-0.0197598 0.0244409,-0.0342205 0.034315,-0.0417559 0.0453701,-0.0779213l-0.000125984 0.000389764c0.00180315,-0.0146732 -0.00140945,-0.0202795 -0.00531102,-0.0336142 -0.0016063,0.0113898 -0.0012126,0.00335433 -8.66142e-005,0.0167874 0.00270472,0.0323465 -0.0268071,0.061622 -0.0509213,0.0929685 -0.00529921,0.00688583 -0.0109016,0.0134882 -0.0167795,0.0198425 0.00453937,-0.000448819 0.00892913,2.3622e-005 0.012252,0.00130709z"/>
  <path class="fil22" d="M3.17592 3.94445c0.000318898,-0.000444882 0.000641732,-0.000877953 0.000956693,-0.00132283 0.0343622,-0.0484488 0.0471654,-0.058622 0.0662677,-0.111472l-0.000216535 0.000574803c0.00462598,-0.0217441 0.00184252,-0.0304843 -0.000413386,-0.0508543 -0.00382677,0.0168465 -0.00198819,0.00487795 -0.00298819,0.0250866 -0.00240551,0.0486732 -0.0418307,0.0891614 -0.0753228,0.13335l-0.000728346 0.000948819c0.00483071,0.000181102 0.00926378,0.00149606 0.0124449,0.00368898z"/>
 </g>
</svg>
